<?xml version="1.0" encoding="utf-8"?>
<!-- Generator: Adobe Illustrator 16.0.0, SVG Export Plug-In . SVG Version: 6.00 Build 0)  -->
<!DOCTYPE svg PUBLIC "-//W3C//DTD SVG 1.1//EN" "http://www.w3.org/Graphics/SVG/1.1/DTD/svg11.dtd">
<svg version="1.1" id="Layer_1" xmlns="http://www.w3.org/2000/svg" xmlns:xlink="http://www.w3.org/1999/xlink" x="0px" y="0px"
	 width="100px" height="100px" viewBox="0 0 100 100" enable-background="new 0 0 100 100" xml:space="preserve">
<g>
	<g>
		<g>
			<path fill="#333333" d="M49.989,57.584c-4.214,0-7.158-2.176-7.158-5.292l0.022-23.985c0-3.015,3.077-5.291,7.157-5.291
				c4.214,0,7.156,2.176,7.156,5.292l-0.021,23.985C57.146,55.309,54.069,57.584,49.989,57.584z M50.011,26.916
				c-1.958,0-3.257,0.838-3.257,1.393l-0.021,23.985c0,0.671,1.309,1.391,3.257,1.391c1.958,0,3.257-0.837,3.257-1.393l0.022-23.985
				C53.269,27.636,51.96,26.916,50.011,26.916z"/>
		</g>
		<g>
			<path fill="#333333" d="M50,76.984c-4.417,0-8.009-3.594-8.009-8.011c0-4.415,3.593-8.008,8.009-8.008
				c4.415,0,8.008,3.593,8.008,8.008C58.009,73.391,54.415,76.984,50,76.984z M50,64.865c-2.266,0-4.109,1.844-4.109,4.108
				c0,2.267,1.843,4.11,4.109,4.11c2.265,0,4.109-1.844,4.109-4.11C54.109,66.709,52.266,64.865,50,64.865z"/>
		</g>
	</g>
	<g>
		<g>
			<path fill="#333333" d="M50,100C22.43,100,0,77.57,0,50S22.43,0,50,0s50,22.43,50,50S77.57,100,50,100z M50,3.899
				C24.58,3.899,3.899,24.58,3.899,50S24.58,96.101,50,96.101S96.101,75.42,96.101,50S75.42,3.899,50,3.899z"/>
		</g>
		<g>
			<path fill="#333333" d="M50,89.623c-21.848,0-39.623-17.775-39.623-39.623c0-21.848,17.775-39.623,39.623-39.623
				c21.848,0,39.623,17.775,39.623,39.623C89.623,71.848,71.848,89.623,50,89.623z M50,14.277
				c-19.698,0-35.723,16.025-35.723,35.723c0,19.697,16.025,35.723,35.723,35.723c19.697,0,35.723-16.025,35.723-35.723
				C85.723,30.302,69.697,14.277,50,14.277z"/>
		</g>
	</g>
</g>
</svg>
