<?xml version="1.0" encoding="utf-8"?>
<!-- Generator: Adobe Illustrator 16.0.0, SVG Export Plug-In . SVG Version: 6.00 Build 0)  -->
<!DOCTYPE svg PUBLIC "-//W3C//DTD SVG 1.1//EN" "http://www.w3.org/Graphics/SVG/1.1/DTD/svg11.dtd">
<svg version="1.1" id="Layer_1" xmlns="http://www.w3.org/2000/svg" xmlns:xlink="http://www.w3.org/1999/xlink" x="0px" y="0px"
	 width="100px" height="100px" viewBox="0 0 100 100" enable-background="new 0 0 100 100" xml:space="preserve">
<g>
	<g>
		<g>
			<path fill="#333333" d="M2.583,96.133C1.183,96.133,0,94.99,0,93.638V13.13c0-1.448,1.135-2.583,2.583-2.583h19.479V6.449
				c0-1.448,1.134-2.582,2.582-2.582s2.583,1.134,2.583,2.582v4.098h46.164V6.449c0-1.448,1.133-2.582,2.582-2.582
				c1.448,0,2.583,1.134,2.583,2.582v4.098h18.862c1.448,0,2.582,1.135,2.582,2.583v80.42c0,1.448-1.134,2.583-2.582,2.583H2.583z
				 M5.167,91.057h89.668v-58.82H5.167V91.057z M5.167,27.069h89.755V15.714H78.556v2.953c0,1.448-1.135,2.583-2.583,2.583
				c-1.449,0-2.582-1.135-2.582-2.583v-2.953H27.227v2.953c0,1.448-1.135,2.583-2.583,2.583s-2.582-1.135-2.582-2.583v-2.953H5.167
				V27.069z"/>
		</g>
		<g>
			<path fill="#333333" d="M24.116,55.969c-1.448,0-2.583-1.137-2.583-2.586s1.135-2.582,2.583-2.582h51.856
				c1.448,0,2.583,1.133,2.583,2.582s-1.135,2.586-2.583,2.586H24.116z"/>
		</g>
		<g>
			<path fill="#333333" d="M24.116,73.369c-1.448,0-2.583-1.135-2.583-2.581c0-1.45,1.135-2.585,2.583-2.585h25.929
				c1.448,0,2.582,1.135,2.582,2.585c0,1.446-1.134,2.581-2.582,2.581H24.116z"/>
		</g>
	</g>
</g>
</svg>
