<?xml version="1.0" encoding="utf-8"?>
<!-- Generator: Adobe Illustrator 16.0.0, SVG Export Plug-In . SVG Version: 6.00 Build 0)  -->
<!DOCTYPE svg PUBLIC "-//W3C//DTD SVG 1.1//EN" "http://www.w3.org/Graphics/SVG/1.1/DTD/svg11.dtd">
<svg version="1.1" id="Layer_1" xmlns="http://www.w3.org/2000/svg" xmlns:xlink="http://www.w3.org/1999/xlink" x="0px" y="0px"
	 width="100px" height="100px" viewBox="0 0 100 100" enable-background="new 0 0 100 100" xml:space="preserve">
<path fill="#010002" d="M91.669,9.375H78.125v-6.25C78.125,1.397,76.728,0,75,0s-3.125,1.397-3.125,3.125v6.25h-18.75v-6.25
	C53.125,1.397,51.725,0,50,0s-3.125,1.397-3.125,3.125v6.25h-18.75v-6.25C28.125,1.397,26.725,0,25,0s-3.125,1.397-3.125,3.125v6.25
	H8.334C3.731,9.375,0,13.103,0,17.706v73.96C0,96.269,3.731,100,8.334,100h83.334c4.603,0,8.331-3.731,8.331-8.334v-73.96
	C100,13.103,96.272,9.375,91.669,9.375z M93.75,91.666c0,1.149-0.935,2.084-2.081,2.084H8.334c-1.15,0-2.084-0.935-2.084-2.084
	v-73.96c0-1.146,0.935-2.081,2.084-2.081h13.541v6.25c0,1.728,1.4,3.125,3.125,3.125s3.125-1.397,3.125-3.125v-6.25h18.75v6.25
	c0,1.728,1.4,3.125,3.125,3.125s3.125-1.397,3.125-3.125v-6.25h18.75v6.25C71.875,23.603,73.272,25,75,25s3.125-1.397,3.125-3.125
	v-6.25h13.544c1.146,0,2.081,0.935,2.081,2.081V91.666z"/>
<rect x="21.875" y="37.5" fill="#010002" width="12.5" height="9.375"/>
<rect x="21.875" y="53.125" fill="#010002" width="12.5" height="9.375"/>
<rect x="21.875" y="68.75" fill="#010002" width="12.5" height="9.375"/>
<rect x="43.75" y="68.75" fill="#010002" width="12.5" height="9.375"/>
<rect x="43.75" y="53.125" fill="#010002" width="12.5" height="9.375"/>
<rect x="43.75" y="37.5" fill="#010002" width="12.5" height="9.375"/>
<rect x="65.625" y="68.75" fill="#010002" width="12.5" height="9.375"/>
<rect x="65.625" y="53.125" fill="#010002" width="12.5" height="9.375"/>
<rect x="65.625" y="37.5" fill="#010002" width="12.5" height="9.375"/>
</svg>
