<?xml version="1.0" encoding="utf-8"?>
<!-- Generator: Adobe Illustrator 16.0.0, SVG Export Plug-In . SVG Version: 6.00 Build 0)  -->
<!DOCTYPE svg PUBLIC "-//W3C//DTD SVG 1.1//EN" "http://www.w3.org/Graphics/SVG/1.1/DTD/svg11.dtd">
<svg version="1.1" id="Layer_1" xmlns="http://www.w3.org/2000/svg" xmlns:xlink="http://www.w3.org/1999/xlink" x="0px" y="0px"
	 width="100px" height="100px" viewBox="0 0 100 100" enable-background="new 0 0 100 100" xml:space="preserve">
<path fill="#333333" d="M63.427,92.536c1.348-0.326,2.164-1.694,1.838-3.022c-0.327-1.348-1.695-2.164-3.022-1.838
	c-3.962,0.98-8.087,1.471-12.232,1.471C25.199,89.146,5.003,71.585,5.003,50c0-21.584,20.196-39.146,45.007-39.146
	S95.018,28.416,95.018,50c0,9.006-3.431,17.46-9.904,24.484c-0.633,0.694-0.837,1.675-0.511,2.573
	c1.348,3.614,3.35,6.637,5.983,8.985c-3.717,0.143-8.78-0.389-13.478-3.227c-1.185-0.715-2.716-0.327-3.431,0.857
	s-0.327,2.716,0.857,3.431c7.495,4.492,15.622,4.206,19.788,3.614c1.572-0.225,2.817-1.368,3.165-2.899
	c0.347-1.572-0.286-3.146-1.654-4.044c-2.593-1.715-4.595-4.084-5.983-7.105C96.406,69.032,100,59.618,100,50
	c0-24.341-22.442-44.149-50.01-44.149S0,25.659,0,50c0,24.342,22.422,44.149,50.01,44.149
	C54.564,94.149,59.077,93.618,63.427,92.536z"/>
<circle fill="#333333" cx="50.031" cy="50" r="3.206"/>
<circle fill="#333333" cx="63.835" cy="50" r="3.206"/>
<circle fill="#333333" cx="36.226" cy="50" r="3.206"/>
</svg>
