<?xml version="1.0" encoding="utf-8"?>
<!-- Generator: Adobe Illustrator 16.0.0, SVG Export Plug-In . SVG Version: 6.00 Build 0)  -->
<!DOCTYPE svg PUBLIC "-//W3C//DTD SVG 1.1//EN" "http://www.w3.org/Graphics/SVG/1.1/DTD/svg11.dtd">
<svg version="1.1" id="Layer_1" xmlns="http://www.w3.org/2000/svg" xmlns:xlink="http://www.w3.org/1999/xlink" x="0px" y="0px"
	 width="100px" height="100px" viewBox="0 0 100 100" enable-background="new 0 0 100 100" xml:space="preserve">
<path d="M14,93.512c0.225,0.102,0.491,0.143,0.736,0.143c0.47,0,0.94-0.184,1.288-0.511l12.814-12.263h24.096
	c5.007,0,9.074-4.066,9.074-9.074V58.134c0-1.021-0.838-1.859-1.86-1.859s-1.86,0.838-1.86,1.859v13.673
	c0,2.963-2.411,5.354-5.354,5.354H28.081c-0.47,0-0.94,0.185-1.288,0.511l-10.219,9.77v-8.4c0-1.021-0.838-1.859-1.86-1.859H9.074
	c-2.963,0-5.354-2.412-5.354-5.354V45.054c0-2.963,2.412-5.375,5.354-5.375h21.929c1.022,0,1.86-0.838,1.86-1.86
	s-0.838-1.86-1.86-1.86H9.074C4.067,35.959,0,40.026,0,45.034v26.773c0,5.008,4.067,9.074,9.074,9.074h3.801v10.934
	C12.875,92.551,13.325,93.225,14,93.512z"/>
<path d="M70.958,51.594l12.917,12.365c0.348,0.326,0.817,0.511,1.288,0.511c0.245,0,0.491-0.041,0.736-0.144
	c0.674-0.285,1.124-0.96,1.124-1.695V51.594h3.842c5.028,0,9.136-4.087,9.136-9.136V15.481c0-5.028-4.087-9.136-9.136-9.136H46.658
	c-5.027,0-9.135,4.087-9.135,9.136v26.977c0,5.028,4.087,9.136,9.135,9.136H70.958L70.958,51.594z M41.243,42.458V15.481
	c0-2.984,2.432-5.416,5.416-5.416h44.186c2.984,0,5.416,2.432,5.416,5.416v26.977c0,2.984-2.432,5.416-5.416,5.416h-5.702
	c-1.022,0-1.86,0.838-1.86,1.86v8.543l-10.321-9.872c-0.348-0.327-0.797-0.511-1.288-0.511H46.658
	C43.675,47.895,41.243,45.463,41.243,42.458z"/>
<path d="M68.751,31.198c0.491,0,0.961-0.205,1.309-0.552c0.347-0.348,0.552-0.818,0.552-1.308c0-0.491-0.205-0.96-0.552-1.308
	c-0.348-0.347-0.818-0.552-1.309-0.552c-0.49,0-0.96,0.205-1.308,0.552c-0.348,0.348-0.552,0.817-0.552,1.308
	c0,0.49,0.204,0.96,0.552,1.308C67.791,31.014,68.261,31.198,68.751,31.198z"/>
<path d="M75.659,31.198c0.49,0,0.96-0.205,1.308-0.552c0.348-0.348,0.552-0.818,0.552-1.308c0-0.491-0.204-0.96-0.552-1.308
	c-0.347-0.347-0.817-0.552-1.308-0.552c-0.491,0-0.961,0.205-1.308,0.552c-0.347,0.348-0.552,0.817-0.552,1.308
	c0,0.49,0.205,0.96,0.552,1.308C74.678,31.014,75.168,31.198,75.659,31.198z"/>
<path d="M61.864,31.198c0.491,0,0.96-0.205,1.308-0.552c0.348-0.348,0.552-0.818,0.552-1.308c0-0.491-0.204-0.96-0.552-1.308
	c-0.348-0.347-0.817-0.552-1.308-0.552c-0.49,0-0.96,0.205-1.308,0.552c-0.347,0.348-0.552,0.817-0.552,1.308
	c0,0.49,0.205,0.96,0.552,1.308C60.903,31.014,61.374,31.198,61.864,31.198z"/>
</svg>
