<?xml version="1.0" encoding="utf-8"?>
<!-- Generator: Adobe Illustrator 16.0.0, SVG Export Plug-In . SVG Version: 6.00 Build 0)  -->
<!DOCTYPE svg PUBLIC "-//W3C//DTD SVG 1.1//EN" "http://www.w3.org/Graphics/SVG/1.1/DTD/svg11.dtd">
<svg version="1.1" id="Layer_1" xmlns="http://www.w3.org/2000/svg" xmlns:xlink="http://www.w3.org/1999/xlink" x="0px" y="0px"
	 width="100px" height="100px" viewBox="0 0 100 100" enable-background="new 0 0 100 100" xml:space="preserve">
<path fill="#333333" d="M17.92,81.979c1.188,1.188,2.728,1.747,4.294,1.781c1.539,0,3.106-0.59,4.292-1.776l23.477-23.47
	l23.491,23.497c1.188,1.188,2.725,1.747,4.293,1.784c1.537,0,3.106-0.595,4.293-1.779c2.373-2.371,2.37-6.212-0.002-8.514L58.562,50
	L82.03,26.534c2.373-2.372,2.37-6.208-0.003-8.515c-2.376-2.376-6.214-2.377-8.516-0.004l-23.471,23.47L26.54,17.988
	c-2.375-2.375-6.213-2.377-8.509-0.003c-2.373,2.375-2.372,6.211,0.003,8.511l23.494,23.497L18.054,73.465
	C15.552,75.767,15.553,79.604,17.92,81.979z"/>
</svg>
