<?xml version="1.0" encoding="utf-8"?>
<!-- Generator: Adobe Illustrator 16.0.0, SVG Export Plug-In . SVG Version: 6.00 Build 0)  -->
<!DOCTYPE svg PUBLIC "-//W3C//DTD SVG 1.1//EN" "http://www.w3.org/Graphics/SVG/1.1/DTD/svg11.dtd">
<svg version="1.1" id="Layer_1" xmlns="http://www.w3.org/2000/svg" xmlns:xlink="http://www.w3.org/1999/xlink" x="0px" y="0px"
	 width="100px" height="100px" viewBox="0 0 100 100" enable-background="new 0 0 100 100" xml:space="preserve">
<g>
	<g>
		<path fill="#333333" d="M87.788,11.95h-75.56C5.481,11.95,0,17.427,0,24.175v51.642C0,82.564,5.481,88.05,12.229,88.05h75.542
			c6.748,0,12.229-5.485,12.229-12.233v-51.62C100.021,17.449,94.536,11.95,87.788,11.95z M94.437,75.816
			c0,3.665-2.982,6.644-6.648,6.644h-75.56c-3.665,0-6.643-2.979-6.643-6.644v-51.62c0-3.665,2.978-6.647,6.643-6.647h75.542
			c3.666,0,6.644,2.982,6.644,6.647v51.62H94.437z"/>
		<path fill="#333333" d="M63.069,49.355l24.453-21.933c1.137-1.036,1.241-2.795,0.205-3.953c-1.032-1.137-2.791-1.236-3.953-0.209
			L50.052,53.535l-6.578-5.878c-0.021-0.017-0.043-0.043-0.043-0.043c-0.144-0.166-0.287-0.287-0.457-0.409L16.199,23.243
			c-1.158-1.036-2.917-0.932-3.953,0.227c-1.027,1.158-0.927,2.917,0.231,3.953l24.749,22.12L12.577,72.612
			c-1.114,1.053-1.176,2.812-0.122,3.952c0.558,0.579,1.307,0.889,2.047,0.889c0.688,0,1.366-0.244,1.906-0.744l25.016-23.4
			l6.782,6.06c0.54,0.479,1.202,0.706,1.863,0.706c0.666,0,1.35-0.249,1.863-0.728l6.975-6.247L83.774,76.73
			c0.54,0.518,1.245,0.766,1.929,0.766c0.744,0,1.467-0.287,2.024-0.87c1.063-1.114,1.019-2.896-0.101-3.953L63.069,49.355z"/>
	</g>
</g>
</svg>
