<?xml version="1.0" encoding="utf-8"?>
<!-- Generator: Adobe Illustrator 16.0.0, SVG Export Plug-In . SVG Version: 6.00 Build 0)  -->
<!DOCTYPE svg PUBLIC "-//W3C//DTD SVG 1.1//EN" "http://www.w3.org/Graphics/SVG/1.1/DTD/svg11.dtd">
<svg version="1.1" id="Layer_1" xmlns="http://www.w3.org/2000/svg" xmlns:xlink="http://www.w3.org/1999/xlink" x="0px" y="0px"
	 width="100px" height="100px" viewBox="0 0 100 100" enable-background="new 0 0 100 100" xml:space="preserve">
<path fill="#2C2F33" d="M87.792,11.95H12.229C5.483,11.95,0,17.433,0,24.178v51.644c0,6.744,5.483,12.229,12.229,12.229h75.543
	c6.745,0,12.229-5.484,12.229-12.229V24.199C100.021,17.454,94.537,11.95,87.792,11.95z M94.434,75.822
	c0,3.662-2.979,6.641-6.642,6.641H12.229c-3.663,0-6.642-2.979-6.642-6.641V24.199c0-3.662,2.979-6.642,6.642-6.642h75.543
	c3.662,0,6.642,2.979,6.642,6.642v51.624H94.434z"/>
<path fill="#2C2F33" d="M63.065,49.359l24.458-21.932c1.138-1.035,1.241-2.793,0.207-3.952c-1.035-1.138-2.794-1.242-3.953-0.207
	L50.052,53.538l-6.58-5.876c-0.021-0.021-0.041-0.042-0.041-0.062c-0.145-0.145-0.29-0.269-0.456-0.394L16.201,23.247
	c-1.159-1.035-2.917-0.931-3.952,0.228s-0.931,2.917,0.228,3.952l24.746,22.118L12.58,72.615c-1.117,1.055-1.179,2.813-0.124,3.951
	c0.559,0.58,1.303,0.891,2.048,0.891c0.683,0,1.366-0.248,1.904-0.746l25.015-23.4l6.787,6.063c0.538,0.477,1.2,0.703,1.862,0.703
	c0.661,0,1.344-0.248,1.861-0.724l6.973-6.249l24.871,23.629c0.538,0.518,1.241,0.766,1.925,0.766c0.745,0,1.47-0.289,2.028-0.869
	c1.055-1.117,1.014-2.896-0.104-3.953L63.065,49.359z"/>
</svg>
