<?xml version="1.0" encoding="utf-8"?>
<!-- Generator: Adobe Illustrator 16.0.0, SVG Export Plug-In . SVG Version: 6.00 Build 0)  -->
<!DOCTYPE svg PUBLIC "-//W3C//DTD SVG 1.1//EN" "http://www.w3.org/Graphics/SVG/1.1/DTD/svg11.dtd">
<svg version="1.1" id="Layer_1" xmlns="http://www.w3.org/2000/svg" xmlns:xlink="http://www.w3.org/1999/xlink" x="0px" y="0px"
	 width="100px" height="100px" viewBox="0 0 100 100" enable-background="new 0 0 100 100" xml:space="preserve">
<path fill="#333333" d="M27.248,26.262c2.591,0.921,5.489,0.758,7.96-0.45l1.248-0.61c1.49-0.713,3.224-0.837,4.771-0.287
	l23.314,8.043c-0.244,0.897-0.714,1.942-1.532,2.512c-0.94,0.653-2.387,0.653-4.284,0l-10.451-3.576
	c-0.534-0.179-1.124-0.119-1.614,0.148c-0.49,0.263-0.857,0.733-1,1.263c-0.02,0.06-1.491,5.449-6.023,7.88
	c-2.858,1.53-6.429,1.57-10.611,0.144c-1.064-0.371-2.204,0.203-2.575,1.267c-0.366,1.056,0.203,2.201,1.264,2.567
	c2.451,0.841,4.779,1.267,6.943,1.267c2.511,0,4.815-0.573,6.919-1.693c4.082-2.205,6.246-6.002,7.247-8.346l8.573,2.937
	c3.181,1.084,5.835,0.917,7.896-0.51c3.249-2.249,3.473-6.633,3.493-7.123c0.019-0.881-0.53-1.674-1.368-1.981l-24.9-8.593
	c-2.574-0.877-5.432-0.714-7.879,0.49l-1.248,0.609c-1.506,0.737-3.264,0.837-4.834,0.287l-2.06-0.733
	c-0.124-0.083-0.248-0.144-0.391-0.188l-12.719-4.423c-1.06-0.372-2.204,0.199-2.566,1.263L0.1,49.655
	c-0.164,0.491-0.124,1.041,0.1,1.531c0.247,0.49,0.654,0.857,1.164,1.024l12.779,4.385c0.228,0.084,0.431,0.104,0.654,0.104
	c0.837,0,1.634-0.53,1.917-1.368l10.024-29.248L27.248,26.262z M13.552,52.107l-8.939-3.065l9.39-27.411l8.94,3.062L13.552,52.107z"
	/>
<path fill="#333333" d="M99.795,48.021L85.342,18.362c-0.247-0.486-0.654-0.852-1.167-1.02c-0.507-0.179-1.062-0.139-1.547,0.104
	l-12.125,5.938c-1.004,0.49-1.411,1.694-0.921,2.699l13.839,28.288l-4.289,3.942c-3.958,3.631-8.427,6.673-13.245,9.04
	l-23.21,11.368c-0.447,0.227-0.957,0.247-1.451,0.083c-0.466-0.164-0.853-0.51-1.076-0.961c-0.227-0.446-0.247-0.956-0.083-1.447
	c0.164-0.47,0.51-0.857,0.961-1.084l12.982-6.345c1-0.491,1.407-1.698,0.917-2.694c-0.491-1.001-1.695-1.412-2.695-0.922
	l-12.982,6.35l-6.122,3.002c-0.45,0.223-0.96,0.243-1.451,0.08c-0.47-0.164-0.856-0.511-1.08-0.957
	c-0.227-0.45-0.247-0.96-0.084-1.451c0.164-0.47,0.51-0.857,0.961-1.084l18.618-9.1c0.997-0.491,1.407-1.698,0.917-2.698
	c-0.49-0.997-1.694-1.407-2.695-0.917L27.391,68.804c-0.94,0.446-2.061,0.059-2.531-0.857c-0.227-0.45-0.247-0.96-0.084-1.451
	c0.164-0.47,0.51-0.857,0.961-1.08l8.246-4.042l10.718-5.245c0.997-0.49,1.407-1.698,0.917-2.698
	c-0.49-0.996-1.694-1.407-2.694-0.917l-16.677,8.167c-0.94,0.447-2.061,0.06-2.531-0.861c-0.45-0.937-0.059-2.061,0.858-2.531
	l8.856-4.324c1-0.491,1.411-1.694,0.92-2.695c-0.49-1-1.694-1.411-2.694-0.917l-8.861,4.325c-2.938,1.427-4.161,4.999-2.709,7.94
	c0.405,0.836,0.977,1.51,1.669,2.061c-1.224,1.653-1.511,4.002-0.51,6.022c1,2.041,3.001,3.225,5.126,3.304
	c0,0.881,0.203,1.778,0.59,2.595c0.693,1.427,1.897,2.491,3.408,3.002c0.633,0.222,1.287,0.326,1.92,0.326
	c0.897,0,1.774-0.207,2.591-0.613l1.06-0.531c0.084,0.61,0.267,1.248,0.554,1.837c0.694,1.427,1.897,2.491,3.409,3.001
	c0.629,0.224,1.287,0.327,1.921,0.327c0.893,0,1.773-0.208,2.591-0.614l23.21-11.372c5.181-2.53,9.96-5.795,14.206-9.693
	l5.181-4.756l11.862-5.795C99.875,50.23,100.282,49.026,99.795,48.021z M86.829,52.146L74.094,26.123l8.49-4.165l12.738,26.024
	L86.829,52.146z"/>
</svg>
