<?xml version="1.0" encoding="utf-8"?>
<!-- Generator: Adobe Illustrator 16.0.0, SVG Export Plug-In . SVG Version: 6.00 Build 0)  -->
<!DOCTYPE svg PUBLIC "-//W3C//DTD SVG 1.1//EN" "http://www.w3.org/Graphics/SVG/1.1/DTD/svg11.dtd">
<svg version="1.1" id="Layer_1" xmlns="http://www.w3.org/2000/svg" xmlns:xlink="http://www.w3.org/1999/xlink" x="0px" y="0px"
	 width="100px" height="100px" viewBox="0 0 100 100" enable-background="new 0 0 100 100" xml:space="preserve">
<path fill="#2C2F33" d="M37.613,23.852l10.841,8.008c0.451,0.343,0.988,0.494,1.524,0.494s1.074-0.172,1.524-0.494l10.841-8.008
	c0.666-0.494,1.052-1.245,1.052-2.083V7.9c0-1.417-1.159-2.576-2.576-2.576H39.158c-1.417,0-2.576,1.159-2.576,2.576v13.869
	C36.583,22.585,36.969,23.357,37.613,23.852z M41.735,10.477h16.552v9.983L50,26.578l-8.265-6.097V10.477z"/>
<path fill="#2C2F33" d="M89.223,16.273H70.009c-1.417,0-2.577,1.16-2.577,2.576c0,1.417,1.16,2.577,2.577,2.577h19.214
	c3.113,0,5.625,2.533,5.625,5.625v56.849c0,3.113-2.534,5.625-5.625,5.625H10.777c-3.113,0-5.625-2.533-5.625-5.625V27.05
	c0-3.113,2.533-5.625,5.625-5.625H29.97c1.417,0,2.577-1.16,2.577-2.577c0-1.417-1.16-2.576-2.577-2.576H10.777
	C4.831,16.273,0,21.104,0,27.05v56.849c0,5.947,4.831,10.777,10.777,10.777h78.446c5.947,0,10.777-4.83,10.777-10.777V27.05
	C100,21.104,95.17,16.273,89.223,16.273z"/>
<path fill="#2C2F33" d="M18.656,43.259c0,4.959,4.036,8.995,8.995,8.995c4.959,0,8.995-4.036,8.995-8.995
	c0-4.959-4.036-8.995-8.995-8.995C22.692,34.264,18.656,38.3,18.656,43.259z M31.494,43.259c0,2.125-1.717,3.843-3.843,3.843
	s-3.843-1.717-3.843-3.843c0-2.125,1.717-3.843,3.843-3.843S31.494,41.134,31.494,43.259z"/>
<path fill="#2C2F33" d="M27.651,54.101c-5.088,0-9.21,2.361-11.915,6.827c-1.954,3.221-3.177,7.579-3.671,12.946
	c-0.129,1.417,0.923,2.662,2.34,2.791c1.417,0.128,2.662-0.923,2.791-2.34c0.923-10.004,4.444-15.071,10.455-15.071
	s9.532,5.066,10.455,15.071c0.129,1.331,1.245,2.34,2.555,2.34c0.086,0,0.15,0,0.236-0.021c1.417-0.129,2.469-1.374,2.34-2.791
	c-0.494-5.367-1.739-9.704-3.671-12.945C36.861,56.462,32.739,54.101,27.651,54.101z"/>
<path fill="#2C2F33" d="M81.859,39.073H53.091c-1.417,0-2.576,1.159-2.576,2.576c0,1.417,1.16,2.576,2.576,2.576h28.768
	c1.417,0,2.577-1.16,2.577-2.576C84.436,40.232,83.276,39.073,81.859,39.073z"/>
<path fill="#2C2F33" d="M84.436,60.09c0-1.417-1.16-2.577-2.577-2.577H53.091c-1.417,0-2.576,1.16-2.576,2.577
	s1.16,2.576,2.576,2.576h28.768C83.276,62.667,84.436,61.529,84.436,60.09z"/>
<path fill="#2C2F33" d="M53.091,66.703c-1.417,0-2.576,1.159-2.576,2.576s1.16,2.576,2.576,2.576h14.384
	c1.417,0,2.576-1.159,2.576-2.576s-1.159-2.576-2.576-2.576H53.091z"/>
<path fill="#2C2F33" d="M81.859,48.261H53.091c-1.417,0-2.576,1.159-2.576,2.576c0,1.417,1.16,2.576,2.576,2.576h28.768
	c1.417,0,2.577-1.16,2.577-2.576C84.436,49.42,83.276,48.261,81.859,48.261z"/>
</svg>
