<?xml version="1.0" encoding="utf-8"?>
<!-- Generator: Adobe Illustrator 16.0.0, SVG Export Plug-In . SVG Version: 6.00 Build 0)  -->
<!DOCTYPE svg PUBLIC "-//W3C//DTD SVG 1.1//EN" "http://www.w3.org/Graphics/SVG/1.1/DTD/svg11.dtd">
<svg version="1.1" id="Layer_1" xmlns="http://www.w3.org/2000/svg" xmlns:xlink="http://www.w3.org/1999/xlink" x="0px" y="0px"
	 width="100px" height="100px" viewBox="0 0 100 100" enable-background="new 0 0 100 100" xml:space="preserve">
<path fill="#2C2F33" d="M16.674,100h66.652c4.03,0,7.324-3.295,7.324-7.325V52.843c0-4.029-3.294-7.324-7.324-7.324h-5.155V28.171
	C78.171,12.643,65.528,0,50,0S21.829,12.643,21.829,28.171v17.348h-5.155c-4.031,0-7.324,3.295-7.324,7.324v39.832
	C9.35,96.705,12.643,100,16.674,100z M26.841,28.171C26.841,15.405,37.234,5.013,50,5.013s23.159,10.393,23.159,23.158v17.348
	H26.841V28.171z M14.362,52.843c0-1.268,1.043-2.312,2.312-2.312h66.652c1.269,0,2.313,1.044,2.313,2.312v39.832
	c0,1.269-1.044,2.313-2.313,2.313H16.674c-1.269,0-2.312-1.044-2.312-2.313V52.843z"/>
<path fill="#2C2F33" d="M50,82.957c5.626,0,10.209-4.582,10.209-10.208S55.626,62.54,50,62.54s-10.209,4.583-10.209,10.209
	C39.791,78.396,44.374,82.957,50,82.957z M50,67.573c2.864,0,5.196,2.332,5.196,5.196S52.864,77.966,50,77.966
	s-5.196-2.332-5.196-5.196S47.136,67.573,50,67.573z"/>
</svg>
