<?xml version="1.0" encoding="utf-8"?>
<!-- Generator: Adobe Illustrator 16.0.0, SVG Export Plug-In . SVG Version: 6.00 Build 0)  -->
<!DOCTYPE svg PUBLIC "-//W3C//DTD SVG 1.1//EN" "http://www.w3.org/Graphics/SVG/1.1/DTD/svg11.dtd">
<svg version="1.1" id="Layer_1" xmlns="http://www.w3.org/2000/svg" xmlns:xlink="http://www.w3.org/1999/xlink" x="0px" y="0px"
	 width="153.266px" height="15.232px" viewBox="0 0 153.266 15.232" enable-background="new 0 0 153.266 15.232"
	 xml:space="preserve">
<g>
	<path fill="#FF5428" d="M7.761,2.869c-0.021,0-0.036,0.003-0.057,0.003H9.25C9.08,2.851,8.905,2.836,8.728,2.836
		C8.427,2.836,8.104,2.848,7.761,2.869z"/>
	<path fill="#FF5428" d="M10.242,5.65C9.819,6.022,9.18,6.21,8.32,6.21H6.215l0.414-1.746H0.396L0,6.055h2.931L0.8,14.973
		c0.729,0.158,1.546,0.273,2.449,0.344c0.902,0.074,1.783,0.109,2.642,0.109c1.376,0,2.542-0.148,3.502-0.441
		s1.74-0.688,2.342-1.184c0.601-0.492,1.037-1.059,1.311-1.695c0.272-0.639,0.41-1.301,0.41-1.985c0-0.604-0.152-1.15-0.45-1.646
		c-0.303-0.494-0.773-0.882-1.419-1.17c0.543-0.242,0.981-0.515,1.321-0.814c0.336-0.302,0.601-0.619,0.794-0.957
		c0.192-0.336,0.322-0.678,0.389-1.021c0.002-0.018,0.002-0.032,0.007-0.049H10.86C10.824,4.915,10.624,5.313,10.242,5.65z
		 M9.76,11.557c-0.216,0.303-0.491,0.539-0.828,0.711s-0.716,0.291-1.139,0.355c-0.423,0.063-0.849,0.094-1.278,0.094
		c-0.3,0-0.627-0.01-0.978-0.031c-0.352-0.021-0.642-0.055-0.869-0.098l0.923-3.865H7.91c0.386,0,0.721,0.049,1,0.15
		C9.191,8.971,9.414,9.1,9.587,9.26C9.76,9.418,9.885,9.596,9.962,9.795c0.08,0.201,0.119,0.399,0.119,0.602
		C10.081,10.87,9.974,11.258,9.76,11.557z"/>
	<path fill="#FF5428" d="M7.761,2.869c0.344-0.021,0.667-0.033,0.967-0.033c0.177,0,0.353,0.015,0.523,0.036h4.864
		c-0.049-0.224-0.121-0.439-0.222-0.648c-0.192-0.407-0.485-0.762-0.88-1.063c-0.394-0.302-0.903-0.54-1.526-0.721
		c-0.622-0.178-1.363-0.268-2.224-0.268C8.521,0.173,7.7,0.2,6.806,0.259C5.91,0.315,5.055,0.423,4.239,0.581L3.69,2.872h4.015
		C7.725,2.872,7.74,2.869,7.761,2.869z"/>
	<path fill="#FF5428" d="M24.388,9.54c-0.244,0.985-0.587,1.75-1.03,2.287c-0.442,0.537-1.096,0.805-1.956,0.805
		c-0.414,0-0.762-0.045-1.042-0.139c-0.279-0.093-0.502-0.226-0.667-0.396c-0.164-0.174-0.278-0.373-0.343-0.602
		c-0.065-0.23-0.098-0.486-0.098-0.773c0-0.529,0.073-1.053,0.216-1.57l1.121-4.687h-3.354l-1.012,4.214
		C16.009,9.527,15.9,10.32,15.9,11.066c0,0.644,0.092,1.24,0.271,1.793c0.177,0.552,0.468,1.025,0.869,1.418
		c0.401,0.396,0.921,0.701,1.558,0.925c0.637,0.221,1.423,0.332,2.354,0.332c1.803,0,3.254-0.447,4.35-1.343
		c1.096-0.895,1.887-2.354,2.374-4.371l1.273-5.354h-3.353L24.388,9.54z"/>
	<polygon fill="#FF5428" points="21.575,0.345 18.223,0.345 17.616,2.872 20.97,2.872 	"/>
	<polygon fill="#FF5428" points="29.932,0.345 26.58,0.345 25.978,2.872 29.329,2.872 	"/>
	<polygon fill="#FF5428" points="36.526,0.345 33.174,0.345 32.57,2.872 35.919,2.872 	"/>
	<polygon fill="#FF5428" points="29.609,15.233 39.535,15.233 40.221,12.397 33.627,12.397 35.535,4.464 32.188,4.464 	"/>
	<polygon fill="#FF5428" points="48.471,0.345 45.12,0.345 44.515,2.872 47.862,2.872 	"/>
	<polygon fill="#FF5428" points="41.554,15.233 51.479,15.233 52.167,12.397 45.572,12.397 47.48,4.464 44.133,4.464 	"/>
	<polygon fill="#FF5428" points="53.499,15.233 63.702,15.233 64.391,12.461 57.517,12.461 58.374,8.809 64.002,8.809 64.668,6.102 
		59.041,6.102 59.416,4.464 56.078,4.464 	"/>
	<polygon fill="#FF5428" points="66.794,0.345 57.064,0.345 56.458,2.872 66.165,2.872 	"/>
	<polygon fill="#FF5428" points="69.223,15.233 72.575,15.233 75.163,4.464 71.809,4.464 	"/>
	<polygon fill="#FF5428" points="80.524,0.345 68.45,0.345 67.832,2.872 79.906,2.872 	"/>
	<path fill="#FF5428" d="M91.235,1.16c-0.396-0.303-0.904-0.54-1.525-0.721c-0.625-0.178-1.366-0.268-2.225-0.268
		c-0.745,0-1.563,0.027-2.461,0.086c-0.896,0.057-1.75,0.164-2.565,0.322l-0.547,2.291h4.014c0.019,0,0.037-0.003,0.055-0.003
		c0.347-0.021,0.666-0.033,0.968-0.033c0.272,0,0.538,0.024,0.796,0.075c0.259,0.051,0.485,0.133,0.687,0.248
		c0.201,0.114,0.361,0.27,0.484,0.461c0.123,0.192,0.184,0.426,0.184,0.698c0,0.516-0.213,0.959-0.636,1.331
		C88.041,6.021,87.4,6.209,86.54,6.209h-2.105l0.416-1.746H81.53l-2.51,10.51c0.729,0.158,1.546,0.273,2.448,0.344
		c0.903,0.074,1.783,0.109,2.643,0.109c1.38,0,2.543-0.148,3.502-0.441c0.961-0.293,1.742-0.688,2.343-1.184
		c0.604-0.492,1.039-1.059,1.313-1.695c0.271-0.639,0.407-1.301,0.407-1.985c0-0.604-0.15-1.15-0.45-1.646
		c-0.303-0.494-0.774-0.882-1.419-1.17C90.35,7.063,90.79,6.79,91.127,6.49c0.336-0.302,0.603-0.619,0.796-0.957
		c0.192-0.336,0.32-0.678,0.386-1.021c0.064-0.346,0.096-0.672,0.096-0.988c0-0.459-0.096-0.892-0.288-1.301
		C91.922,1.816,91.626,1.462,91.235,1.16z M87.979,11.557c-0.216,0.303-0.491,0.539-0.825,0.711
		c-0.337,0.172-0.717,0.291-1.139,0.355c-0.424,0.063-0.852,0.094-1.281,0.094c-0.3,0-0.625-0.01-0.978-0.031
		c-0.352-0.021-0.642-0.055-0.868-0.098l0.923-3.865h2.319c0.387,0,0.721,0.049,1,0.15c0.28,0.098,0.506,0.227,0.676,0.387
		c0.173,0.158,0.298,0.336,0.377,0.535c0.08,0.201,0.119,0.399,0.119,0.602C88.302,10.87,88.192,11.258,87.979,11.557z"/>
	<path fill="#FF5428" d="M108.159,3.631c-0.291-0.772-0.702-1.428-1.234-1.966c-0.529-0.537-1.16-0.947-1.89-1.235
		C104.306,0.144,103.505,0,102.63,0c-1.316,0-2.5,0.275-3.545,0.827c-1.044,0.553-1.933,1.268-2.652,2.147
		c-0.725,0.881-1.279,1.874-1.666,2.978c-0.385,1.104-0.58,2.212-0.58,3.33c0,0.975,0.148,1.846,0.441,2.62
		c0.293,0.773,0.705,1.429,1.233,1.966c0.529,0.537,1.16,0.948,1.891,1.235c0.731,0.287,1.535,0.429,2.405,0.429
		c1.333,0,2.521-0.273,3.569-0.814c1.044-0.545,1.926-1.258,2.652-2.139c0.723-0.881,1.272-1.877,1.652-2.986
		s0.567-2.223,0.567-3.339C108.601,5.278,108.456,4.404,108.159,3.631z M104.811,8.797c-0.236,0.738-0.563,1.395-0.986,1.967
		c-0.426,0.572-0.918,1.031-1.482,1.375c-0.568,0.342-1.178,0.514-1.838,0.514c-1.019,0-1.75-0.332-2.201-0.997
		c-0.454-0.666-0.678-1.535-0.678-2.611c0-0.787,0.119-1.552,0.354-2.297c0.234-0.745,0.564-1.403,0.989-1.977
		c0.421-0.572,0.914-1.033,1.479-1.376s1.179-0.517,1.838-0.517c1.017,0,1.751,0.334,2.2,1c0.453,0.667,0.679,1.535,0.679,2.611
		C105.165,7.29,105.047,8.061,104.811,8.797z"/>
	<path fill="#FF5428" d="M121.696,7.617c-0.18-1.313-0.372-2.594-0.581-3.849c-0.207-1.252-0.426-2.395-0.652-3.425h-2.988
		c-0.743,1.03-1.476,2.087-2.19,3.168c-0.718,1.082-1.449,2.225-2.199,3.427c-0.753,1.204-1.535,2.485-2.345,3.847
		c-0.809,1.36-1.682,2.844-2.608,4.446h3.502c0.285-0.561,0.587-1.106,0.9-1.645c0.315-0.537,0.616-1.07,0.902-1.601h5.587
		c0.041,0.529,0.082,1.063,0.115,1.601c0.037,0.537,0.071,1.084,0.099,1.645h3.374c-0.131-1.146-0.271-2.375-0.42-3.686
		C122.038,10.237,121.874,8.926,121.696,7.617z M114.79,9.366c0.542-0.986,1.104-1.953,1.686-2.9
		c0.58-0.945,1.171-1.896,1.771-2.855c0.143,0.986,0.254,1.978,0.334,2.964c0.078,0.988,0.151,1.919,0.225,2.792H114.79z"/>
	<path fill="#FF5428" d="M136.639,1.439c-0.476-0.386-1.068-0.693-1.785-0.923c-0.714-0.229-1.553-0.344-2.515-0.344
		c-0.599,0-1.267,0.027-1.997,0.086c-0.729,0.057-1.482,0.156-2.255,0.3l-3.502,14.674h3.331l1.308-5.438h1.678
		c0.414,0.703,0.791,1.537,1.129,2.504c0.334,0.969,0.669,1.943,0.997,2.934h3.59c-0.373-1.159-0.771-2.27-1.194-3.33
		c-0.421-1.061-0.832-1.963-1.234-2.707c0.775-0.245,1.407-0.543,1.9-0.893c0.496-0.349,0.89-0.734,1.183-1.15
		c0.294-0.414,0.494-0.851,0.604-1.311c0.106-0.457,0.159-0.922,0.159-1.396c0-0.572-0.113-1.12-0.344-1.644
		C137.462,2.281,137.109,1.827,136.639,1.439z M134.499,5.704c-0.121,0.278-0.325,0.524-0.612,0.741
		c-0.288,0.214-0.663,0.386-1.139,0.517c-0.475,0.127-1.052,0.19-1.739,0.19h-1.14l0.967-4.079c0.173-0.015,0.389-0.029,0.646-0.043
		c0.26-0.015,0.507-0.022,0.753-0.022c0.484,0,0.888,0.052,1.2,0.151c0.318,0.1,0.566,0.234,0.753,0.405
		c0.188,0.172,0.315,0.37,0.388,0.593c0.071,0.223,0.107,0.455,0.107,0.697C134.683,5.144,134.619,5.425,134.499,5.704z"/>
	<path fill="#FF5428" d="M152.813,3.718c-0.301-0.731-0.74-1.361-1.32-1.891c-0.58-0.53-1.29-0.939-2.126-1.226
		c-0.838-0.287-1.788-0.43-2.846-0.43c-0.603,0-1.279,0.031-2.033,0.097c-0.75,0.063-1.536,0.176-2.352,0.333l-3.458,14.371
		c0.729,0.158,1.489,0.273,2.275,0.344c0.789,0.074,1.484,0.109,2.083,0.109c1.592,0,3.018-0.217,4.276-0.645
		c1.26-0.431,2.331-1.044,3.211-1.839s1.559-1.766,2.03-2.909c0.474-1.146,0.71-2.441,0.71-3.89
		C153.266,5.257,153.115,4.448,152.813,3.718z M149.397,8.948c-0.286,0.78-0.69,1.438-1.214,1.977
		c-0.522,0.537-1.157,0.949-1.913,1.236c-0.752,0.284-1.594,0.428-2.521,0.428c-0.286,0-0.515-0.002-0.679-0.01
		c-0.165-0.009-0.324-0.019-0.483-0.031l2.278-9.496c0.44-0.044,0.881-0.065,1.313-0.065c0.657,0,1.219,0.079,1.686,0.236
		c0.464,0.158,0.844,0.384,1.138,0.678c0.295,0.294,0.507,0.646,0.634,1.053c0.13,0.408,0.193,0.863,0.193,1.363
		C149.827,7.29,149.687,8.167,149.397,8.948z"/>
</g>
</svg>
