<?xml version="1.0" encoding="utf-8"?>
<!-- Generator: Adobe Illustrator 16.0.0, SVG Export Plug-In . SVG Version: 6.00 Build 0)  -->
<!DOCTYPE svg PUBLIC "-//W3C//DTD SVG 1.1//EN" "http://www.w3.org/Graphics/SVG/1.1/DTD/svg11.dtd">
<svg version="1.1" id="Layer_1" xmlns="http://www.w3.org/2000/svg" xmlns:xlink="http://www.w3.org/1999/xlink" x="0px" y="0px"
	 width="100px" height="100px" viewBox="0 0 100 100" enable-background="new 0 0 100 100" xml:space="preserve">
<g>
	<path fill="#2C2F33" d="M93.531,6.477c-8.615-8.631-22.619-8.631-31.219,0L5.083,63.694c-0.45,0.442-0.721,1.021-0.811,1.636
		L0.025,96.738c-0.12,0.9,0.195,1.786,0.826,2.409c0.525,0.532,1.275,0.855,2.011,0.855c0.135,0,0.255,0,0.391-0.022l18.911-2.552
		c1.591-0.225,2.701-1.674,2.477-3.242c-0.21-1.583-1.666-2.687-3.242-2.477L6.224,93.752l2.972-21.899l23.054,23.055
		c0.54,0.533,1.275,0.848,2.012,0.848c0.765,0,1.5-0.292,2.025-0.848l57.245-57.21c4.172-4.18,6.469-9.726,6.469-15.625
		S97.703,10.626,93.531,6.477z M63.423,13.509l9.605,9.614L20.813,75.35l-9.606-9.614L63.423,13.509z M34.29,88.813l-9.396-9.396
		L77.126,27.19l9.396,9.396L34.29,88.813z M90.514,32.474L67.535,9.486c2.912-2.409,6.559-3.729,10.387-3.729
		c4.367,0,8.465,1.703,11.557,4.772c3.092,3.07,4.772,7.182,4.772,11.543C94.251,25.929,92.931,29.562,90.514,32.474z"/>
</g>
</svg>
