<?xml version="1.0" encoding="utf-8"?>
<!-- Generator: Adobe Illustrator 16.0.0, SVG Export Plug-In . SVG Version: 6.00 Build 0)  -->
<!DOCTYPE svg PUBLIC "-//W3C//DTD SVG 1.1//EN" "http://www.w3.org/Graphics/SVG/1.1/DTD/svg11.dtd">
<svg version="1.1" id="Layer_1" xmlns="http://www.w3.org/2000/svg" xmlns:xlink="http://www.w3.org/1999/xlink" x="0px" y="0px"
	 width="100px" height="100px" viewBox="0 0 100 100" enable-background="new 0 0 100 100" xml:space="preserve">
<path fill="#2C2F33" d="M95.711,98.034c-1.089-0.08-2.052-0.563-2.748-1.361c-0.698-0.801-1.04-1.821-0.963-2.872
	c0.293-4.173-0.05-11.391-5.636-12.814c-19.67-4.947-26.951-11.643-29.564-16.52c-2.09,0.583-4.375,0.898-6.8,0.938h-0.818
	c-2.157-0.039-4.211-0.298-6.121-0.771c-2.702,4.837-10.025,11.474-29.421,16.332c-5.584,1.431-5.927,8.644-5.634,12.815
	c0.162,2.169-1.486,4.066-3.674,4.231l-0.28,0.001c-2.079,0-3.815-1.616-3.953-3.68c-0.809-11.303,3.418-18.973,11.6-21.044
	c16.801-4.206,22.314-9.486,24.037-11.93c-1.408-0.987-2.709-2.151-3.875-3.466c-9.566-10.782-7.75-29.508-7.667-30.299
	C25.098,8.894,37.808,2.089,49.4,1.966h0.41c5.63,0.081,24.063,2.173,25.154,25.657c0.08,0.764,1.901,19.483-7.667,30.27
	c-0.962,1.105-2.08,2.138-3.324,3.068c1.505,2.477,6.706,7.902,24.313,12.328c8.172,2.085,12.406,9.764,11.621,21.067
	c-0.137,2.062-1.874,3.678-3.953,3.678H95.711z M49.488,9.895c-6.191,0.06-16.68,2.5-17.39,18.178c0,0.045-0.007,0.104-0.015,0.161
	L32.069,28.4c-0.218,2.727-0.969,16.71,5.73,24.243c2.795,3.12,6.513,4.7,11.359,4.825l0.329-0.015h0.202
	c5.021-0.059,8.846-1.639,11.688-4.831c7.16-8.031,5.81-23.438,5.729-24.277c-0.028-0.115-0.028-0.225-0.028-0.295
	c-0.71-15.61-11.19-18.077-17.375-18.156H49.488z"/>
</svg>
