<?xml version="1.0" encoding="utf-8"?>
<!-- Generator: Adobe Illustrator 16.0.0, SVG Export Plug-In . SVG Version: 6.00 Build 0)  -->
<!DOCTYPE svg PUBLIC "-//W3C//DTD SVG 1.1//EN" "http://www.w3.org/Graphics/SVG/1.1/DTD/svg11.dtd">
<svg version="1.1" id="Layer_1" xmlns="http://www.w3.org/2000/svg" xmlns:xlink="http://www.w3.org/1999/xlink" x="0px" y="0px"
	 width="100px" height="100px" viewBox="0 0 100 100" enable-background="new 0 0 100 100" xml:space="preserve">
<path fill="#2C2F33" d="M49.992,65.059c2.554-0.041,4.945-0.388,7.131-1.042c2.309,4.638,9.256,11.646,29.729,16.795
	c6.007,1.532,6.375,9.092,6.068,13.465c-0.143,1.92,1.328,3.596,3.249,3.739c0.082,0,0.164,0,0.245,0
	c1.819,0,3.372-1.41,3.494-3.249c0.776-11.156-3.351-18.716-11.36-20.759c-18.695-4.7-23.742-10.522-25.09-13.077
	c1.308-0.94,2.534-2.023,3.637-3.29C76.41,47.14,74.898,29.2,74.714,27.423C73.632,4.13,55.386,2.066,49.808,1.985h-0.143
	c-0.041,0-0.082,0-0.143,0h-0.123C37.896,2.107,25.33,8.871,24.431,27.423c-0.184,1.777-1.696,19.717,7.621,30.219
	c1.267,1.43,2.697,2.677,4.229,3.698c-1.655,2.656-7.131,8.234-24.845,12.668C3.448,76.03-0.7,83.611,0.097,94.746
	c0.123,1.839,1.675,3.249,3.494,3.249c0.082,0,0.164,0,0.246,0c1.92-0.143,3.392-1.818,3.249-3.739
	c-0.307-4.373,0.082-11.932,6.068-13.465C33.054,75.806,40.225,69.002,42.738,64.2c2.002,0.531,4.148,0.817,6.436,0.858H49.992z
	 M49.481,58.05c-5.21-0.062-9.194-1.716-12.178-5.047c-7.539-8.479-5.905-24.784-5.905-24.947c0-0.082,0.021-0.143,0.021-0.225
	C32.154,11.608,43.045,9.054,49.481,8.993h0.102h0.123c6.416,0.082,17.306,2.656,18.042,18.838c0,0.061,0,0.143,0.021,0.204
	c0.021,0.164,1.655,16.468-5.905,24.947c-2.983,3.351-6.947,4.986-12.178,5.047h-0.204V58.05L49.481,58.05z"/>
</svg>
