<?xml version="1.0" encoding="utf-8"?>
<!-- Generator: Adobe Illustrator 16.0.0, SVG Export Plug-In . SVG Version: 6.00 Build 0)  -->
<!DOCTYPE svg PUBLIC "-//W3C//DTD SVG 1.1//EN" "http://www.w3.org/Graphics/SVG/1.1/DTD/svg11.dtd">
<svg version="1.1" id="Layer_1" xmlns="http://www.w3.org/2000/svg" xmlns:xlink="http://www.w3.org/1999/xlink" x="0px" y="0px"
	 width="100px" height="100px" viewBox="0 0 100 100" enable-background="new 0 0 100 100" xml:space="preserve">
<g>
	<path fill="#2C2F33" d="M20.377,66.476c9.863,11.793,21.736,21.07,35.289,27.637c5.158,2.446,12.058,5.348,19.749,5.842
		c0.472,0.022,0.931,0.046,1.408,0.046c5.158,0,9.3-1.781,12.678-5.445c0.022-0.023,0.063-0.069,0.08-0.109
		c1.207-1.448,2.574-2.752,3.998-4.147c0.977-0.931,1.971-1.907,2.924-2.896c4.418-4.602,4.418-10.443-0.04-14.896L84.009,60.053
		c-2.113-2.2-4.642-3.366-7.289-3.366c-2.654,0-5.205,1.166-7.376,3.344l-7.422,7.416c-0.684-0.391-1.391-0.741-2.051-1.074
		c-0.827-0.42-1.598-0.811-2.275-1.247c-6.755-4.291-12.891-9.886-18.75-17.072c-2.97-3.751-4.957-6.905-6.348-10.11
		c1.947-1.764,3.769-3.607,5.532-5.411c0.626-0.644,1.264-1.281,1.907-1.925c2.24-2.24,3.44-4.831,3.44-7.462
		s-1.177-5.222-3.44-7.451l-6.17-6.181c-0.729-0.724-1.413-1.43-2.119-2.148c-1.367-1.413-2.798-2.86-4.205-4.165
		C25.311,1.097,22.801,0,20.153,0c-2.637,0-5.164,1.097-7.382,3.211l-7.755,7.75c-2.809,2.815-4.406,6.244-4.739,10.202
		c-0.391,4.946,0.518,10.208,2.884,16.573C6.786,47.576,12.254,56.71,20.377,66.476z M5.333,21.594
		c0.247-2.758,1.31-5.061,3.297-7.043l7.703-7.709c1.201-1.166,2.528-1.77,3.82-1.77c1.258,0,2.551,0.604,3.729,1.804
		c1.384,1.292,2.688,2.637,4.102,4.062c0.712,0.724,1.425,1.453,2.148,2.2l6.181,6.175c1.287,1.281,1.941,2.591,1.941,3.877
		c0,1.281-0.654,2.585-1.941,3.872c-0.644,0.637-1.286,1.304-1.924,1.947c-1.931,1.947-3.734,3.797-5.722,5.549
		c-0.046,0.046-0.069,0.069-0.098,0.109c-1.724,1.718-1.453,3.355-1.04,4.602c0.018,0.057,0.04,0.109,0.058,0.167
		c1.603,3.832,3.814,7.474,7.272,11.828c6.216,7.663,12.765,13.614,19.98,18.193c0.891,0.586,1.844,1.039,2.734,1.493
		c0.821,0.413,1.597,0.81,2.274,1.246c0.086,0.035,0.149,0.081,0.235,0.115c0.678,0.362,1.339,0.522,2.005,0.522
		c1.66,0,2.734-1.051,3.085-1.413l7.749-7.749c1.207-1.2,2.517-1.838,3.798-1.838c1.568,0,2.854,0.977,3.67,1.838l12.489,12.477
		c2.487,2.488,2.47,5.176-0.063,7.813c-0.867,0.937-1.781,1.821-2.758,2.758c-1.447,1.407-2.958,2.86-4.325,4.492
		c-2.384,2.573-5.216,3.774-8.893,3.774c-0.351,0-0.724-0.018-1.08-0.04c-6.796-0.438-13.114-3.091-17.859-5.349
		c-12.885-6.232-24.202-15.079-33.588-26.321C16.591,53.98,11.387,45.318,7.946,36.029C5.809,30.331,5.004,25.758,5.333,21.594z"/>
</g>
</svg>
