<?xml version="1.0" encoding="utf-8"?>
<!-- Generator: Adobe Illustrator 16.0.0, SVG Export Plug-In . SVG Version: 6.00 Build 0)  -->
<!DOCTYPE svg PUBLIC "-//W3C//DTD SVG 1.1//EN" "http://www.w3.org/Graphics/SVG/1.1/DTD/svg11.dtd">
<svg version="1.1" id="Layer_1" xmlns="http://www.w3.org/2000/svg" xmlns:xlink="http://www.w3.org/1999/xlink" x="0px" y="0px"
	 width="100px" height="100px" viewBox="0 0 100 100" enable-background="new 0 0 100 100" xml:space="preserve">
<path fill="#333333" d="M49.892,100c1.854,0,3.488-0.763,4.744-1.961c1.199-1.198,1.963-2.887,1.963-4.737V56.645h36.695
	c1.854,0,3.49-0.762,4.744-1.96c1.198-1.198,1.962-2.888,1.962-4.739c0-3.704-2.999-6.7-6.651-6.645H56.653V6.646
	c0-3.704-2.999-6.699-6.652-6.645c-3.709,0-6.707,2.995-6.652,6.645v36.656H6.653c-3.708,0-6.707,2.996-6.652,6.645
	c0,3.704,2.999,6.699,6.652,6.645h36.695v36.655C43.186,97.005,46.184,100,49.892,100z"/>
</svg>
