<?xml version="1.0" encoding="utf-8"?>
<!-- Generator: Adobe Illustrator 16.0.0, SVG Export Plug-In . SVG Version: 6.00 Build 0)  -->
<!DOCTYPE svg PUBLIC "-//W3C//DTD SVG 1.1//EN" "http://www.w3.org/Graphics/SVG/1.1/DTD/svg11.dtd">
<svg version="1.1" id="Layer_1" xmlns="http://www.w3.org/2000/svg" xmlns:xlink="http://www.w3.org/1999/xlink" x="0px" y="0px"
	 width="100px" height="100px" viewBox="0 0 100 100" enable-background="new 0 0 100 100" xml:space="preserve">
<g>
	<path fill="#333333" d="M99.469,90.143c1.414,3.282-0.091,7.079-3.366,8.489c-3.271,1.421-7.061-0.09-8.488-3.363
		C81.396,80.87,66.687,71.573,50.123,71.573c-16.924,0-31.724,9.294-37.706,23.68c-1.032,2.485-3.433,3.974-5.964,3.974
		c-0.827,0-1.661-0.15-2.464-0.49c-3.301-1.367-4.86-5.143-3.495-8.429C8.485,71.083,27.958,58.666,50.12,58.666
		C71.828,58.67,91.2,71.016,99.469,90.143z"/>
	<path fill="#333333" d="M5.266,14.113c0-7.367,5.971-13.34,13.341-13.34c7.368,0,13.338,5.971,13.338,13.34
		c0,7.373-5.971,13.356-13.338,13.356C11.237,27.467,5.266,21.486,5.266,14.113z"/>
	<path fill="#333333" d="M65.77,14.113c0-7.367,5.985-13.34,13.344-13.34c7.369,0,13.352,5.971,13.352,13.34
		c0,7.373-5.979,13.356-13.352,13.356C71.755,27.47,65.77,21.486,65.77,14.113z"/>
</g>
</svg>
