<?xml version="1.0" encoding="utf-8"?>
<!-- Generator: Adobe Illustrator 16.0.0, SVG Export Plug-In . SVG Version: 6.00 Build 0)  -->
<!DOCTYPE svg PUBLIC "-//W3C//DTD SVG 1.1//EN" "http://www.w3.org/Graphics/SVG/1.1/DTD/svg11.dtd">
<svg version="1.1" id="Layer_1" xmlns="http://www.w3.org/2000/svg" xmlns:xlink="http://www.w3.org/1999/xlink" x="0px" y="0px"
	 width="100px" height="100px" viewBox="0 0 100 100" enable-background="new 0 0 100 100" xml:space="preserve">
<g>
	<g>
		<path fill="#2C2F33" d="M90.742,94.896c-1.11,0-2.155-0.432-2.94-1.216L66.345,72.223c-6.687,5.355-14.978,8.284-23.548,8.284
			c-20.788,0-37.701-16.913-37.701-37.701c0-20.789,16.913-37.701,37.701-37.701s37.701,16.913,37.701,37.701
			c0,8.571-2.929,16.861-8.283,23.548l21.47,21.455c0.786,0.785,1.219,1.827,1.219,2.935c0,1.105-0.433,2.147-1.218,2.934
			C92.897,94.464,91.853,94.896,90.742,94.896z M42.797,13.409c-16.208,0-29.396,13.187-29.396,29.396
			c0,16.209,13.187,29.396,29.396,29.396c16.209,0,29.396-13.187,29.396-29.396C72.193,26.596,59.006,13.409,42.797,13.409z"/>
	</g>
</g>
</svg>
