<?xml version="1.0" encoding="utf-8"?>
<!-- Generator: Adobe Illustrator 16.0.0, SVG Export Plug-In . SVG Version: 6.00 Build 0)  -->
<!DOCTYPE svg PUBLIC "-//W3C//DTD SVG 1.1//EN" "http://www.w3.org/Graphics/SVG/1.1/DTD/svg11.dtd">
<svg version="1.1" id="Layer_1" xmlns="http://www.w3.org/2000/svg" xmlns:xlink="http://www.w3.org/1999/xlink" x="0px" y="0px"
	 width="100px" height="100px" viewBox="0 0 100 100" enable-background="new 0 0 100 100" xml:space="preserve">
<g>
	<path fill="#333333" d="M100,49.994c0-3.467-1.978-6.444-5.18-7.77L11.678,7.556C8.415,6.189,4.724,6.985,2.297,9.554
		c-2.427,2.57-2.978,6.302-1.428,9.483l13.256,27.021c0.387,0.795,1.162,1.325,2.039,1.387l47.047,3.854
		c1.387,0.122,2.59-0.917,2.692-2.284c0.122-1.366-0.918-2.59-2.284-2.692l-45.64-3.752L5.356,16.834
		c-0.979-1.978,0.204-3.446,0.571-3.854c0.388-0.408,1.774-1.672,3.813-0.816l83.143,34.668c1.958,0.816,2.101,2.631,2.101,3.161
		c0,0.53-0.143,2.345-2.101,3.161L9.74,87.822c-2.039,0.856-3.426-0.408-3.813-0.815c-0.387-0.408-1.55-1.876-0.571-3.854
		l13.255-27.021c0.612-1.244,0.102-2.733-1.142-3.345c-1.244-0.611-2.732-0.102-3.344,1.143L0.869,80.95
		c-1.55,3.181-0.999,6.893,1.428,9.482c1.631,1.733,3.834,2.672,6.098,2.672c1.101,0,2.202-0.225,3.263-0.653L94.8,57.783
		C98.022,56.438,100,53.46,100,49.994z"/>
</g>
</svg>
