<?xml version="1.0" encoding="utf-8"?>
<!-- Generator: Adobe Illustrator 16.0.0, SVG Export Plug-In . SVG Version: 6.00 Build 0)  -->
<!DOCTYPE svg PUBLIC "-//W3C//DTD SVG 1.1//EN" "http://www.w3.org/Graphics/SVG/1.1/DTD/svg11.dtd">
<svg version="1.1" id="Layer_1" xmlns="http://www.w3.org/2000/svg" xmlns:xlink="http://www.w3.org/1999/xlink" x="0px" y="0px"
	 width="100px" height="100px" viewBox="0 0 100 100" enable-background="new 0 0 100 100" xml:space="preserve">
<path fill="#333333" d="M71.046,53.892H57.459c-3.72,0-6.744,3.027-6.744,6.747v10.417c0,3.72,3.023,6.738,6.744,6.738h13.586
	c3.716,0,6.744-3.019,6.744-6.738V60.639C77.79,56.919,74.762,53.892,71.046,53.892z M72.886,71.056c0,1.021-0.841,1.834-1.84,1.834
	H57.459c-1.026,0-1.84-0.827-1.84-1.834V60.639c0-1.025,0.837-1.84,1.84-1.84h13.586c1.022,0,1.84,0.833,1.84,1.84V71.056z"/>
<path fill="#333333" d="M100,34.948c0-0.426-0.102-0.837-0.328-1.207L84.8,7.589c-0.43-0.753-1.249-1.244-2.125-1.244H17.308
	c-0.878,0-1.691,0.467-2.121,1.244L0.328,33.741C0.125,34.111,0,34.522,0,34.948c0,5.864,3.536,10.893,8.582,13.116v43.141
	c0,1.345,1.105,2.45,2.454,2.45h13.546c0.023,0,0.042,0,0.065,0h18.999c0.019,0,0.042,0,0.065,0h45.24
	c1.345,0,2.444-1.105,2.444-2.45V48.373c0-0.102,0-0.18-0.014-0.269C96.441,45.883,100,40.835,100,34.948z M18.736,11.272h62.505
	l11.627,20.449H7.131L18.736,11.272z M71.167,36.607c-0.777,4.408-4.635,7.76-9.275,7.76c-4.636,0-8.5-3.352-9.276-7.76H71.167z
	 M47.402,36.607c-0.775,4.408-4.635,7.76-9.275,7.76c-4.636,0-8.5-3.352-9.294-7.76H47.402z M5.069,36.607h18.57
	c-0.776,4.408-4.658,7.76-9.293,7.76C9.705,44.39,5.846,41.016,5.069,36.607z M41.191,88.751H27.095V62.283
	c0-1.913,1.549-3.484,3.499-3.484h7.126c1.918,0,3.494,1.554,3.494,3.484v26.468H41.191z M86.497,88.751H46.096V62.283
	c0-4.612-3.758-8.392-8.398-8.392h-7.126c-4.622,0-8.397,3.757-8.397,8.392v26.491H13.49V49.27c0.286,0.023,0.574,0.023,0.856,0.023
	c4.944,0,9.317-2.509,11.89-6.331c2.574,3.822,6.947,6.331,11.892,6.331c4.95,0,9.298-2.509,11.896-6.331
	c2.575,3.822,6.946,6.331,11.869,6.331c4.949,0,9.298-2.509,11.873-6.331c2.573,3.822,6.946,6.331,11.89,6.331
	c0.288,0,0.554-0.023,0.842-0.023V88.751L86.497,88.751z M85.654,44.39c-4.635,0-8.498-3.352-9.274-7.765h18.574
	C94.154,41.016,90.295,44.39,85.654,44.39z"/>
</svg>
