<?xml version="1.0" encoding="utf-8"?>
<!-- Generator: Adobe Illustrator 16.0.0, SVG Export Plug-In . SVG Version: 6.00 Build 0)  -->
<!DOCTYPE svg PUBLIC "-//W3C//DTD SVG 1.1//EN" "http://www.w3.org/Graphics/SVG/1.1/DTD/svg11.dtd">
<svg version="1.1" id="Layer_1" xmlns="http://www.w3.org/2000/svg" xmlns:xlink="http://www.w3.org/1999/xlink" x="0px" y="0px"
	 width="100px" height="100px" viewBox="0 0 100 100" enable-background="new 0 0 100 100" xml:space="preserve">
<path fill="#2C2F33" d="M98.629,23.423c-0.319-1.041-1.143-1.836-2.198-2.11c-1.057-0.276-2.141,0.028-2.922,0.81L81.117,34.515
	c-2.877,2.877-7.592,2.877-10.483-0.014l-5.495-5.496c-2.892-2.892-2.907-7.592-0.015-10.484L77.415,6.23
	c0.795-0.795,1.086-1.951,0.767-3.021c-0.318-1.071-1.187-1.91-2.285-2.14C65.413-1.289,53.584,2.24,45.776,10.048
	c-6.45,6.45-9.79,15.4-9.167,24.524c0.303,4.439-1.257,8.691-4.28,11.713L0.543,78.072c-0.723,0.723-0.724,1.908,0,2.631
	c0.723,0.723,1.909,0.723,2.631,0l31.8-31.8c3.774-3.773,5.726-9.081,5.365-14.59c-0.549-8.069,2.4-15.964,8.097-21.662
	c6.638-6.638,16.558-9.79,25.538-8.213L62.535,15.876c-4.323,4.323-4.323,11.38,0.015,15.718l5.495,5.495
	c4.338,4.338,11.38,4.353,15.718,0.015L95.36,25.506c2.53,9.616-0.216,19.826-7.244,26.854c-6.016,6.016-14.345,8.937-22.833,7.996
	c-5.828-0.651-11.496,1.287-15.545,5.335L18.95,96.479c-0.723,0.723-0.723,1.909,0,2.632c0.722,0.722,1.908,0.722,2.631,0
	l30.802-30.802c3.239-3.239,7.794-4.786,12.509-4.266c9.616,1.055,19.044-2.242,25.854-9.053
	C99.004,46.734,102.026,34.63,98.629,23.423z"/>
<path fill="#2C2F33" d="M42.074,57.796c-0.723-0.724-1.909-0.724-2.632,0L9.84,87.397c-0.723,0.723-0.723,1.909,0,2.632
	c0.723,0.723,1.909,0.723,2.632,0l29.616-29.616C42.797,59.676,42.797,58.519,42.074,57.796z"/>
</svg>
